<?xml version="1.0" encoding="utf-8"?>
<!-- Generator: Adobe Illustrator 22.0.1, SVG Export Plug-In . SVG Version: 6.00 Build 0)  -->
<svg version="1.1" id="Layer_1" xmlns="http://www.w3.org/2000/svg" xmlns:xlink="http://www.w3.org/1999/xlink" x="0px" y="0px"
	 viewBox="0 0 2000 322.1" style="enable-background:new 0 0 2000 322.1;" xml:space="preserve">
<style type="text/css">
	.st0{fill:#EF6525;}
</style>
<g>
	<path class="st0" d="M402,176.2h-35.9v80.1H321V37.5h81.3c25.8,0,45.8,5.8,59.8,17.3c14,11.5,21,27.8,21,48.8
		c0,14.9-3.2,27.4-9.7,37.3c-6.5,10-16.3,17.9-29.4,23.8l47.3,89.4v2.1H443L402,176.2z M366.1,139.7h36.4c11.3,0,20.1-2.9,26.3-8.6
		c6.2-5.8,9.3-13.7,9.3-23.8c0-10.3-2.9-18.4-8.8-24.3c-5.9-5.9-14.9-8.9-27-8.9h-36.2V139.7z"/>
	<path class="st0" d="M581.3,259.3c-23.9,0-43.3-7.3-58.2-21.9c-15-14.6-22.5-34.1-22.5-58.5v-4.2c0-16.3,3.2-30.9,9.5-43.8
		c6.3-12.9,15.3-22.8,26.8-29.8c11.6-7,24.8-10.4,39.6-10.4c22.2,0,39.7,7,52.5,21c12.8,14,19.2,33.9,19.2,59.7v17.7H544.6
		c1.4,10.6,5.6,19.1,12.7,25.5c7.1,6.4,16,9.6,26.8,9.6c16.7,0,29.8-6.1,39.2-18.2l21.3,23.9c-6.5,9.2-15.3,16.4-26.4,21.6
		C607.1,256.8,594.8,259.3,581.3,259.3z M576.3,125.7c-8.6,0-15.6,2.9-21,8.8c-5.4,5.8-8.8,14.2-10.3,25.1h60.4v-3.5
		c-0.2-9.6-2.8-17.1-7.8-22.4S585.5,125.7,576.3,125.7z"/>
	<path class="st0" d="M740.4,224.3c8,0,14.5-2.2,19.5-6.6c5-4.4,7.6-10.3,7.8-17.6h40.7c-0.1,11-3.1,21.1-9,30.3
		c-5.9,9.2-14,16.3-24.3,21.3c-10.3,5.1-21.6,7.6-34,7.6c-23.2,0-41.6-7.4-55-22.2S666,202,666,175.9v-2.9c0-25,6.7-45,20-60
		c13.3-14.9,31.6-22.4,54.9-22.4c20.3,0,36.6,5.8,48.9,17.4c12.3,11.6,18.5,27,18.7,46.2h-40.7c-0.2-8.5-2.8-15.3-7.8-20.6
		c-5-5.3-11.6-7.9-19.8-7.9c-10.1,0-17.7,3.7-22.9,11.1c-5.2,7.4-7.8,19.3-7.8,35.9v4.5c0,16.8,2.6,28.8,7.7,36.1
		C722.2,220.7,730,224.3,740.4,224.3z"/>
	<path class="st0" d="M908.2,259.3c-23.9,0-43.3-7.3-58.2-21.9c-15-14.6-22.5-34.1-22.5-58.5v-4.2c0-16.3,3.2-30.9,9.5-43.8
		c6.3-12.9,15.3-22.8,26.8-29.8c11.6-7,24.8-10.4,39.6-10.4c22.2,0,39.7,7,52.5,21c12.8,14,19.2,33.9,19.2,59.7v17.7H871.5
		c1.4,10.6,5.6,19.1,12.7,25.5c7.1,6.4,16,9.6,26.8,9.6c16.7,0,29.8-6.1,39.2-18.2l21.3,23.9c-6.5,9.2-15.3,16.4-26.4,21.6
		C934,256.8,921.7,259.3,908.2,259.3z M903.2,125.7c-8.6,0-15.6,2.9-21,8.8c-5.4,5.8-8.8,14.2-10.3,25.1h60.4v-3.5
		c-0.2-9.6-2.8-17.1-7.8-22.4S912.4,125.7,903.2,125.7z"/>
	<path class="st0" d="M1045.5,259.1h-43.6V93.7h43.6V259.1z"/>
	<path class="st0" d="M1222.7,176.5c0,25-5.7,45.1-17.1,60.2c-11.4,15.1-26.7,22.6-46.1,22.6c-16.4,0-29.7-5.7-39.8-17.1v76.6h-43.4
		V93.7h40.3l1.5,15.9c10.5-12.6,24.2-18.9,41.2-18.9c20,0,35.6,7.4,46.7,22.2s16.7,35.3,16.7,61.3V176.5z M1179.2,173.4
		c0-15.1-2.7-26.8-8-35c-5.4-8.2-13.2-12.3-23.4-12.3c-13.6,0-23,5.2-28.1,15.6v66.6c5.3,10.7,14.8,16.1,28.4,16.1
		C1168.8,224.3,1179.2,207.3,1179.2,173.4z"/>
	<path class="st0" d="M1301.6,53.8v40h27.8v31.9h-27.8v81.2c0,6,1.1,10.3,3.4,12.9c2.3,2.6,6.7,3.9,13.2,3.9c4.8,0,9.1-0.3,12.8-1.1
		v32.9c-8.5,2.6-17.3,3.9-26.3,3.9c-30.5,0-46-15.4-46.6-46.1v-87.6h-23.7V93.7h23.7v-40H1301.6z"/>
	<path class="st0" d="M1361.2,256.3V37.5h64.6c23.4,0,41.2,4.8,53.4,14.5c12.1,9.7,18.2,23.9,18.2,42.8c0,11.3-3.1,21.2-9.2,29.6
		c-6.2,8.4-14.6,14.4-25.3,18c12.7,2.8,23,9,30.7,18.8c7.8,9.7,11.6,20.9,11.6,33.6c0,19.3-6.2,34.4-18.7,45.3
		c-12.5,10.9-29.8,16.3-52.1,16.3H1361.2z M1379.7,135.7h50.5c15.4-0.3,27.4-3.9,35.8-10.9c8.5-7,12.7-17.1,12.7-30.5
		c0-14-4.4-24.4-13.1-31.1c-8.8-6.7-22-10-39.8-10h-46.1V135.7z M1379.7,151.3v89.4h55.5c15.8,0,28.4-4,37.6-12.1
		c9.3-8.1,13.9-19.2,13.9-33.5c0-13.5-4.4-24.2-13.3-32c-8.9-7.8-21.1-11.8-36.7-11.8H1379.7z"/>
	<path class="st0" d="M1633.3,256.3c-1.8-5.1-2.9-12.7-3.4-22.7c-6.3,8.2-14.3,14.6-24.1,19c-9.8,4.5-20.1,6.7-31,6.7
		c-15.6,0-28.3-4.4-38-13.1c-9.7-8.7-14.5-19.7-14.5-33.1c0-15.8,6.6-28.4,19.8-37.6c13.2-9.2,31.5-13.8,55.1-13.8h32.6v-18.5
		c0-11.6-3.6-20.8-10.7-27.4c-7.2-6.7-17.6-10-31.3-10c-12.5,0-22.9,3.2-31.1,9.6c-8.2,6.4-12.3,14.1-12.3,23.2l-18-0.2
		c0-12.9,6-24.1,18-33.6c12-9.5,26.8-14.2,44.3-14.2c18.1,0,32.4,4.5,42.9,13.6c10.5,9.1,15.9,21.7,16.2,38v76.9
		c0,15.7,1.7,27.5,5,35.3v1.8H1633.3z M1576.8,243.4c12,0,22.8-2.9,32.2-8.7c9.5-5.8,16.4-13.6,20.7-23.3v-35.8h-32.1
		c-17.9,0.2-32,3.5-42.1,9.9c-10.1,6.4-15.2,15.1-15.2,26.2c0,9.1,3.4,16.7,10.1,22.7C1557.2,240.4,1566,243.4,1576.8,243.4z"/>
	<path class="st0" d="M1695.2,93.7l0.6,27.8c6.1-10,13.7-17.7,22.8-22.9c9.1-5.3,19.2-7.9,30.2-7.9c17.4,0,30.4,4.9,38.9,14.7
		c8.5,9.8,12.8,24.6,12.9,44.2v106.7h-17.9V149.5c-0.1-14.5-3.2-25.4-9.3-32.5c-6.1-7.1-15.8-10.7-29.1-10.7
		c-11.1,0-21,3.5-29.5,10.4c-8.6,7-14.9,16.4-19,28.2v111.4h-17.9V93.7H1695.2z"/>
	<path class="st0" d="M1869.6,174.4l-20.6,19.8v62.1h-18V37.5h18v135.7l17-18.3l62.2-61.2h22.7l-69,68.5l75,94.1h-21.5L1869.6,174.4
		z"/>
	<circle class="st0" cx="1023.7" cy="59.1" r="21.8"/>
	<g>
		<path class="st0" d="M1970.3,41.4h-6.9v21.3h-4.3V41.4h-6.9v-3.8h18.1V41.4z M1993.8,44.3l-6.6,18.4h-2.4l-6.6-18.4v18.4h-4.2
			V37.6h5.2l6.7,18.7l6.7-18.7h5.2v25.1h-4.2V44.3z"/>
	</g>
	<rect x="159" y="93.5" width="31.8" height="13.6"/>
	<rect x="70.1" y="93.5" width="67.3" height="13.6"/>
	<rect x="70.1" y="163.1" width="52" height="13.6"/>
	<rect x="70.1" y="128.3" width="84.5" height="13.6"/>
	<polygon points="253.9,76.7 130.9,17.1 7.9,76.7 2,64.5 130.9,2 259.8,64.5 	"/>
	<g>
		<g>
			<path d="M207.4,249.7l-10-6.9l-16.8,11.6l-16.8-11.6l-16.8,11.6l-16.8-11.6l-16.8,11.6l-16.8-11.6L80,254.4l-16.8-11.6l-10,6.9
				V72.8l-13.6,7v195.9l23.6-16.3L80,270.9l16.8-11.6l16.8,11.6l16.8-11.6l16.8,11.6l16.8-11.6l16.8,11.6l16.8-11.6l23.6,16.3v-87
				c-4.6,5.7-9.2,11.9-13.6,18.6V249.7z"/>
			<path d="M221,77.7L207.4,71v52.4c4.8-4.5,9.4-8.5,13.6-11.9V77.7z"/>
		</g>
	</g>
	<path class="st0" d="M177.2,231.6l-44.3-51.3l20.6-17.8L173,185c35.9-54.5,79.2-79.4,81.2-80.6l13.4,23.7l-6.7-11.9l6.7,11.8
		c-0.5,0.3-47.5,27.6-80.9,86.6L177.2,231.6z"/>
</g>
</svg>
